<?xml version="1.0" standalone="no"?>
<!DOCTYPE svg PUBLIC "-//W3C//DTD SVG 20010904//EN"
 "http://www.w3.org/TR/2001/REC-SVG-20010904/DTD/svg10.dtd">
<svg version="1.0" xmlns="http://www.w3.org/2000/svg"
 width="300.000000pt" height="300.000000pt" viewBox="0 0 300.000000 300.000000"
 preserveAspectRatio="xMidYMid meet">
<metadata>
Created by potrace 1.11, written by Peter Selinger 2001-2013
</metadata>
<g transform="translate(0.000000,300.000000) scale(0.100000,-0.100000)"
fill="#000000" stroke="none">
<path d="M1321 2318 l1 -504 104 -1 c57 -1 124 -4 147 -7 255 -35 406 -174
424 -390 14 -180 -86 -347 -263 -437 l-63 -32 33 -41 c18 -23 113 -151 211
-286 215 -296 247 -329 347 -362 64 -22 73 -28 76 -51 l3 -27 317 2 317 3 0
635 1 635 -36 31 c-19 17 -100 84 -180 150 -80 65 -150 123 -156 129 -7 5 -31
26 -55 45 -41 33 -272 223 -314 258 -11 9 -42 35 -70 57 -27 22 -52 42 -55 45
-7 7 -251 208 -425 350 -77 63 -151 124 -165 136 -14 13 -56 48 -95 78 -38 31
-78 63 -87 72 -16 15 -17 -14 -17 -488z"/>
<path d="M1194 2357 c-11 -12 -72 -69 -134 -127 -128 -118 -228 -212 -339
-316 -42 -39 -89 -83 -106 -98 -16 -15 -77 -71 -134 -124 -57 -53 -118 -110
-135 -126 -17 -15 -83 -77 -146 -136 -63 -59 -132 -123 -152 -142 l-38 -34 0
-537 0 -537 385 0 385 1 0 23 c0 32 14 41 86 56 34 7 74 22 90 35 l28 22 1
664 c1 543 -1 669 -13 692 -14 31 -58 54 -119 63 -74 11 -84 20 -75 70 3 16
10 20 30 17 15 -2 116 -5 225 -7 l197 -4 0 284 c0 156 -3 284 -7 283 -5 0 -17
-10 -29 -22z"/>
<path d="M1323 1363 l2 -348 65 3 c247 12 352 121 343 354 -8 211 -131 329
-350 337 l-62 2 2 -348z"/>
<path d="M1326 911 c-2 -4 -4 -149 -4 -323 l-1 -317 32 -6 c18 -4 44 -8 59 -9
39 -4 60 -25 55 -53 l-4 -23 259 1 259 0 -39 29 c-56 40 -86 79 -313 400 -110
157 -204 289 -209 294 -9 10 -89 15 -94 7z"/>
</g>
</svg>
